<svg width="490" height="74" viewBox="0 0 490 74" fill="none" xmlns="http://www.w3.org/2000/svg">
<rect width="490" height="74" fill="#282828"/>
<path d="M61.4094 26.008C63.8334 26.008 65.8014 26.488 67.3134 27.448C68.8494 28.408 69.6174 29.74 69.6174 31.444C69.6174 32.452 69.3534 33.352 68.8254 34.144C68.2974 34.912 67.6134 35.596 66.7734 36.196C65.9334 36.772 65.0214 37.252 64.0374 37.636C63.0774 38.02 62.1414 38.308 61.2294 38.5C62.3814 38.524 63.5334 38.668 64.6854 38.932C65.8374 39.196 66.8814 39.604 67.8174 40.156C68.7774 40.708 69.5454 41.404 70.1214 42.244C70.6974 43.06 70.9854 44.032 70.9854 45.16C70.9854 46.336 70.6614 47.392 70.0134 48.328C69.3894 49.24 68.5374 50.008 67.4574 50.632C66.4014 51.232 65.2014 51.688 63.8574 52C62.5134 52.336 61.1334 52.504 59.7174 52.504C58.4934 52.504 57.3054 52.372 56.1534 52.108C55.0254 51.844 54.0534 51.412 53.2374 50.812C52.7094 50.428 52.2414 49.96 51.8334 49.408C51.4494 48.832 51.2574 48.196 51.2574 47.5C51.2574 46.588 51.5574 45.868 52.1574 45.34C52.7574 44.812 53.4774 44.548 54.3174 44.548C55.1574 44.548 55.8414 44.788 56.3694 45.268C56.8974 45.748 57.1614 46.468 57.1614 47.428C57.1614 48.172 56.9094 48.808 56.4054 49.336C55.9254 49.864 55.2534 50.236 54.3894 50.452C54.8454 50.812 55.4814 51.112 56.2974 51.352C57.1134 51.592 58.0614 51.712 59.1414 51.712C61.1334 51.712 62.6814 51.16 63.7854 50.056C64.9134 48.928 65.4774 47.32 65.4774 45.232C65.4774 44.128 65.3094 43.096 64.9734 42.136C64.6374 41.176 64.1094 40.396 63.3894 39.796C62.6694 39.196 61.7574 38.872 60.6534 38.824C60.4134 38.944 60.1614 39.052 59.8974 39.148C59.6574 39.244 59.3934 39.292 59.1054 39.292C58.9134 39.292 58.7334 39.244 58.5654 39.148C58.4214 39.052 58.3494 38.896 58.3494 38.68C58.3494 38.296 58.6254 38.104 59.1774 38.104C59.4174 38.104 59.6694 38.128 59.9334 38.176C60.1974 38.224 60.4494 38.272 60.6894 38.32C61.5774 37.96 62.2614 37.468 62.7414 36.844C63.2454 36.196 63.5934 35.464 63.7854 34.648C63.9774 33.832 64.0734 32.98 64.0734 32.092C64.0734 30.316 63.7254 29.032 63.0294 28.24C62.3574 27.448 61.3734 27.052 60.0774 27.052C58.7094 27.052 57.5814 27.412 56.6934 28.132C55.8054 28.828 55.1214 29.764 54.6414 30.94C54.1854 32.092 53.9094 33.364 53.8134 34.756H52.9854C52.9854 33.244 52.9734 31.972 52.9494 30.94C52.9494 29.908 52.9374 29.032 52.9134 28.312C52.9134 27.592 52.8894 26.956 52.8414 26.404H53.6694C53.7414 27.052 53.8374 27.544 53.9574 27.88C54.0774 28.192 54.2814 28.348 54.5694 28.348C54.7614 28.348 55.0494 28.216 55.4334 27.952C55.9374 27.616 56.4414 27.304 56.9454 27.016C57.4494 26.704 58.0494 26.464 58.7454 26.296C59.4654 26.104 60.3534 26.008 61.4094 26.008ZM77.6297 52.252C76.0217 52.252 74.8577 51.832 74.1377 50.992C73.4177 50.152 73.0577 49.132 73.0577 47.932C73.0577 46.9 73.2857 46.06 73.7417 45.412C74.2217 44.764 74.8337 44.236 75.5777 43.828C76.3217 43.396 77.1017 43.048 77.9177 42.784C78.7577 42.496 79.5497 42.22 80.2937 41.956C81.0617 41.668 81.6737 41.344 82.1297 40.984C82.6097 40.624 82.8497 40.168 82.8497 39.616V36.808C82.8497 36.184 82.7417 35.632 82.5257 35.152C82.3337 34.648 82.0217 34.264 81.5897 34C81.1817 33.736 80.6417 33.604 79.9697 33.604C79.4897 33.604 79.0097 33.676 78.5297 33.82C78.0497 33.94 77.6537 34.156 77.3417 34.468C78.0137 34.708 78.5297 35.08 78.8897 35.584C79.2737 36.064 79.4657 36.616 79.4657 37.24C79.4657 38.056 79.1777 38.704 78.6017 39.184C78.0497 39.664 77.3897 39.904 76.6217 39.904C75.7577 39.904 75.0977 39.64 74.6417 39.112C74.2097 38.56 73.9937 37.9 73.9937 37.132C73.9937 36.436 74.1617 35.86 74.4977 35.404C74.8577 34.948 75.3497 34.516 75.9737 34.108C76.6457 33.724 77.4497 33.424 78.3857 33.208C79.3457 32.992 80.3777 32.884 81.4817 32.884C82.5857 32.884 83.5817 33.004 84.4697 33.244C85.3577 33.46 86.1017 33.868 86.7017 34.468C87.2537 35.02 87.6137 35.704 87.7817 36.52C87.9497 37.312 88.0337 38.32 88.0337 39.544V49.336C88.0337 49.912 88.0937 50.32 88.2137 50.56C88.3337 50.8 88.5377 50.92 88.8257 50.92C89.0657 50.92 89.2937 50.86 89.5097 50.74C89.7257 50.62 89.9297 50.476 90.1217 50.308L90.4817 50.92C89.9777 51.352 89.3897 51.688 88.7177 51.928C88.0697 52.144 87.3377 52.252 86.5217 52.252C85.0817 52.252 84.1217 51.964 83.6417 51.388C83.1857 50.788 82.9457 50.104 82.9217 49.336C82.3217 50.32 81.5777 51.052 80.6897 51.532C79.8257 52.012 78.8057 52.252 77.6297 52.252ZM80.4017 49.948C80.8577 49.948 81.2777 49.84 81.6617 49.624C82.0697 49.408 82.4657 49.024 82.8497 48.472V41.092C82.5617 41.572 82.1537 41.98 81.6257 42.316C81.1217 42.628 80.5937 42.976 80.0417 43.36C79.5137 43.72 79.0697 44.188 78.7097 44.764C78.3497 45.34 78.1697 46.108 78.1697 47.068C78.1697 48.1 78.3857 48.844 78.8177 49.3C79.2497 49.732 79.7777 49.948 80.4017 49.948ZM112.714 33.424V34.18C111.874 34.18 111.274 34.36 110.914 34.72C110.578 35.08 110.41 35.764 110.41 36.772V48.652C110.41 49.66 110.578 50.344 110.914 50.704C111.274 51.064 111.874 51.244 112.714 51.244V52C112.258 51.976 111.574 51.952 110.662 51.928C109.75 51.88 108.85 51.856 107.962 51.856C107.05 51.856 106.15 51.88 105.262 51.928C104.398 51.952 103.738 51.976 103.282 52V51.244C104.002 51.244 104.506 51.064 104.794 50.704C105.082 50.344 105.226 49.66 105.226 48.652V36.772C105.226 35.764 105.082 35.08 104.794 34.72C104.506 34.36 104.002 34.18 103.282 34.18H100.942C100.246 34.18 99.7425 34.36 99.4305 34.72C99.1425 35.08 98.9985 35.764 98.9985 36.772V48.652C98.9985 49.66 99.1425 50.344 99.4305 50.704C99.7425 51.064 100.246 51.244 100.942 51.244V52C100.51 51.976 99.8745 51.952 99.0345 51.928C98.2185 51.88 97.3665 51.856 96.4785 51.856C95.5665 51.856 94.6305 51.88 93.6705 51.928C92.7105 51.952 91.9905 51.976 91.5105 52V51.244C92.3505 51.244 92.9385 51.064 93.2745 50.704C93.6345 50.344 93.8145 49.66 93.8145 48.652V36.772C93.8145 35.764 93.6345 35.08 93.2745 34.72C92.9385 34.36 92.3505 34.18 91.5105 34.18V33.424C91.9665 33.448 92.6505 33.484 93.5625 33.532C94.4985 33.556 95.3985 33.568 96.2625 33.568C97.1985 33.568 98.1105 33.544 98.9985 33.496C99.9105 33.448 100.942 33.424 102.094 33.424C103.27 33.424 104.254 33.448 105.046 33.496C105.862 33.544 106.762 33.568 107.746 33.568C108.682 33.568 109.618 33.556 110.554 33.532C111.514 33.484 112.234 33.448 112.714 33.424ZM136.284 33.424V34.18C135.444 34.18 134.844 34.36 134.484 34.72C134.148 35.08 133.98 35.764 133.98 36.772V48.652C133.98 49.66 134.148 50.344 134.484 50.704C134.844 51.064 135.444 51.244 136.284 51.244V52C135.828 51.976 135.132 51.952 134.196 51.928C133.284 51.88 132.396 51.856 131.532 51.856C130.62 51.856 129.72 51.88 128.832 51.928C127.968 51.952 127.308 51.976 126.852 52V51.244C127.572 51.244 128.076 51.064 128.364 50.704C128.652 50.344 128.796 49.66 128.796 48.652V36.772C128.796 35.764 128.652 35.08 128.364 34.72C128.076 34.36 127.572 34.18 126.852 34.18V33.424C127.284 33.448 127.92 33.484 128.76 33.532C129.6 33.556 130.452 33.568 131.316 33.568C132.252 33.568 133.188 33.556 134.124 33.532C135.084 33.484 135.804 33.448 136.284 33.424ZM123.864 33.424V34.18C123.168 34.18 122.664 34.36 122.352 34.72C122.064 35.08 121.92 35.764 121.92 36.772V48.652C121.92 49.66 122.064 50.344 122.352 50.704C122.664 51.064 123.168 51.244 123.864 51.244V52C123.432 51.976 122.796 51.952 121.956 51.928C121.14 51.88 120.288 51.856 119.4 51.856C118.488 51.856 117.552 51.88 116.592 51.928C115.632 51.952 114.912 51.976 114.432 52V51.244C115.272 51.244 115.86 51.064 116.196 50.704C116.556 50.344 116.736 49.66 116.736 48.652V36.772C116.736 35.764 116.556 35.08 116.196 34.72C115.86 34.36 115.272 34.18 114.432 34.18V33.424C114.888 33.448 115.572 33.484 116.484 33.532C117.42 33.556 118.32 33.568 119.184 33.568C120.12 33.568 121.02 33.556 121.884 33.532C122.772 33.484 123.432 33.448 123.864 33.424ZM129.228 35.62L129.84 35.98L121.272 50.488L120.66 50.128L129.228 35.62ZM147.382 32.884C148.318 32.884 149.17 32.992 149.938 33.208C150.73 33.4 151.378 33.652 151.882 33.964C152.506 34.348 152.986 34.828 153.322 35.404C153.682 35.956 153.862 36.604 153.862 37.348C153.862 38.188 153.598 38.884 153.07 39.436C152.542 39.964 151.858 40.228 151.018 40.228C150.178 40.228 149.506 39.988 149.002 39.508C148.498 39.028 148.246 38.38 148.246 37.564C148.246 36.796 148.486 36.16 148.966 35.656C149.446 35.128 149.998 34.78 150.622 34.612C150.43 34.372 150.142 34.168 149.758 34C149.374 33.832 148.942 33.748 148.462 33.748C147.718 33.748 147.058 33.964 146.482 34.396C145.93 34.828 145.462 35.428 145.078 36.196C144.694 36.964 144.394 37.864 144.178 38.896C143.986 39.928 143.89 41.056 143.89 42.28C143.89 44.128 144.118 45.58 144.574 46.636C145.054 47.692 145.654 48.436 146.374 48.868C147.118 49.3 147.886 49.516 148.678 49.516C149.35 49.516 150.118 49.336 150.982 48.976C151.846 48.592 152.65 47.8 153.394 46.6L154.006 46.816C153.742 47.704 153.31 48.592 152.71 49.48C152.11 50.368 151.33 51.1 150.37 51.676C149.41 52.228 148.234 52.504 146.842 52.504C145.282 52.504 143.866 52.168 142.594 51.496C141.346 50.8 140.338 49.744 139.57 48.328C138.826 46.888 138.454 45.04 138.454 42.784C138.454 40.624 138.838 38.812 139.606 37.348C140.398 35.86 141.466 34.744 142.81 34C144.154 33.256 145.678 32.884 147.382 32.884ZM165.602 33.424V34.18C164.762 34.18 164.162 34.36 163.802 34.72C163.466 35.08 163.298 35.764 163.298 36.772V49.408C163.298 50.128 163.43 50.62 163.694 50.884C163.958 51.124 164.45 51.244 165.17 51.244C166.226 51.244 167.03 51.028 167.582 50.596C168.158 50.164 168.554 49.6 168.77 48.904C168.986 48.184 169.094 47.428 169.094 46.636C169.094 44.956 168.698 43.744 167.906 43C167.138 42.256 165.806 41.884 163.91 41.884C163.454 41.884 162.974 41.896 162.47 41.92C161.966 41.944 161.522 41.956 161.138 41.956L161.066 41.236C162.074 41.236 162.998 41.224 163.838 41.2C164.702 41.176 165.494 41.164 166.214 41.164C169.118 41.164 171.206 41.656 172.478 42.64C173.774 43.624 174.422 44.848 174.422 46.312C174.422 47.2 174.134 48.088 173.558 48.976C173.006 49.84 172.082 50.56 170.786 51.136C169.514 51.712 167.786 52 165.602 52C164.882 52 164.126 51.976 163.334 51.928C162.542 51.88 161.666 51.856 160.706 51.856C159.866 51.856 158.978 51.88 158.042 51.928C157.13 51.952 156.458 51.976 156.026 52V51.244C156.794 51.244 157.334 51.064 157.646 50.704C157.958 50.344 158.114 49.66 158.114 48.652V36.772C158.114 35.764 157.97 35.08 157.682 34.72C157.394 34.36 156.89 34.18 156.17 34.18V33.424C156.578 33.448 157.202 33.484 158.042 33.532C158.882 33.556 159.746 33.568 160.634 33.568C161.546 33.568 162.482 33.556 163.442 33.532C164.402 33.484 165.122 33.448 165.602 33.424ZM205.527 33.424V34.18C204.687 34.18 204.087 34.36 203.727 34.72C203.391 35.08 203.223 35.764 203.223 36.772V48.652C203.223 49.66 203.391 50.344 203.727 50.704C204.087 51.064 204.687 51.244 205.527 51.244V52C205.071 51.976 204.375 51.952 203.439 51.928C202.527 51.88 201.639 51.856 200.775 51.856C199.863 51.856 198.963 51.88 198.075 51.928C197.211 51.952 196.551 51.976 196.095 52V51.244C196.815 51.244 197.319 51.064 197.607 50.704C197.895 50.344 198.039 49.66 198.039 48.652V36.772C198.039 35.764 197.895 35.08 197.607 34.72C197.319 34.36 196.815 34.18 196.095 34.18V33.424C196.527 33.448 197.163 33.484 198.003 33.532C198.843 33.556 199.695 33.568 200.559 33.568C201.495 33.568 202.431 33.556 203.367 33.532C204.327 33.484 205.047 33.448 205.527 33.424ZM193.755 33.424V34.18C193.059 34.18 192.555 34.36 192.243 34.72C191.955 35.08 191.811 35.764 191.811 36.772V48.652C191.811 49.66 191.955 50.344 192.243 50.704C192.555 51.064 193.059 51.244 193.755 51.244V52C193.323 51.976 192.687 51.952 191.847 51.928C191.031 51.88 190.179 51.856 189.291 51.856C188.379 51.856 187.443 51.88 186.483 51.928C185.523 51.952 184.803 51.976 184.323 52V51.244C185.163 51.244 185.751 51.064 186.087 50.704C186.447 50.344 186.627 49.66 186.627 48.652V36.772C186.627 35.764 186.447 35.08 186.087 34.72C185.751 34.36 185.163 34.18 184.323 34.18V33.424C184.779 33.448 185.463 33.484 186.375 33.532C187.311 33.556 188.211 33.568 189.075 33.568C190.011 33.568 190.911 33.556 191.775 33.532C192.663 33.484 193.323 33.448 193.755 33.424ZM199.911 42.064V42.784H189.759V42.064H199.911ZM211.997 52.252C210.389 52.252 209.225 51.832 208.505 50.992C207.785 50.152 207.425 49.132 207.425 47.932C207.425 46.9 207.653 46.06 208.109 45.412C208.589 44.764 209.201 44.236 209.945 43.828C210.689 43.396 211.469 43.048 212.285 42.784C213.125 42.496 213.917 42.22 214.661 41.956C215.429 41.668 216.041 41.344 216.497 40.984C216.977 40.624 217.217 40.168 217.217 39.616V36.808C217.217 36.184 217.109 35.632 216.893 35.152C216.701 34.648 216.389 34.264 215.957 34C215.549 33.736 215.009 33.604 214.337 33.604C213.857 33.604 213.377 33.676 212.897 33.82C212.417 33.94 212.021 34.156 211.709 34.468C212.381 34.708 212.897 35.08 213.257 35.584C213.641 36.064 213.833 36.616 213.833 37.24C213.833 38.056 213.545 38.704 212.969 39.184C212.417 39.664 211.757 39.904 210.989 39.904C210.125 39.904 209.465 39.64 209.009 39.112C208.577 38.56 208.361 37.9 208.361 37.132C208.361 36.436 208.529 35.86 208.865 35.404C209.225 34.948 209.717 34.516 210.341 34.108C211.013 33.724 211.817 33.424 212.753 33.208C213.713 32.992 214.745 32.884 215.849 32.884C216.953 32.884 217.949 33.004 218.837 33.244C219.725 33.46 220.469 33.868 221.069 34.468C221.621 35.02 221.981 35.704 222.149 36.52C222.317 37.312 222.401 38.32 222.401 39.544V49.336C222.401 49.912 222.461 50.32 222.581 50.56C222.701 50.8 222.905 50.92 223.193 50.92C223.433 50.92 223.661 50.86 223.877 50.74C224.093 50.62 224.297 50.476 224.489 50.308L224.849 50.92C224.345 51.352 223.757 51.688 223.085 51.928C222.437 52.144 221.705 52.252 220.889 52.252C219.449 52.252 218.489 51.964 218.009 51.388C217.553 50.788 217.313 50.104 217.289 49.336C216.689 50.32 215.945 51.052 215.057 51.532C214.193 52.012 213.173 52.252 211.997 52.252ZM214.769 49.948C215.225 49.948 215.645 49.84 216.029 49.624C216.437 49.408 216.833 49.024 217.217 48.472V41.092C216.929 41.572 216.521 41.98 215.993 42.316C215.489 42.628 214.961 42.976 214.409 43.36C213.881 43.72 213.437 44.188 213.077 44.764C212.717 45.34 212.537 46.108 212.537 47.068C212.537 48.1 212.753 48.844 213.185 49.3C213.617 49.732 214.145 49.948 214.769 49.948ZM251.704 33.424V34.18C250.936 34.18 250.396 34.36 250.084 34.72C249.772 35.056 249.616 35.728 249.616 36.736V48.652C249.616 49.66 249.82 50.344 250.228 50.704C250.66 51.064 251.428 51.244 252.532 51.244C252.436 52.084 252.364 52.888 252.316 53.656C252.292 54.424 252.28 55.012 252.28 55.42C252.28 56.356 252.316 57.1 252.388 57.652H251.56C251.344 56.236 251.044 55.108 250.66 54.268C250.276 53.428 249.748 52.828 249.076 52.468C248.428 52.108 247.576 51.928 246.52 51.928C245.824 51.928 245.14 51.94 244.468 51.964C243.82 51.964 243.112 51.976 242.344 52C241.576 52 240.676 52 239.644 52C238.588 52 237.724 52.168 237.052 52.504C236.404 52.864 235.888 53.452 235.504 54.268C235.144 55.108 234.844 56.236 234.604 57.652H233.776C233.848 57.1 233.884 56.356 233.884 55.42C233.884 55.012 233.86 54.424 233.812 53.656C233.788 52.888 233.728 52.084 233.632 51.244H242.056C242.92 51.244 243.532 51.064 243.892 50.704C244.252 50.344 244.432 49.66 244.432 48.652V36.772C244.432 35.764 244.288 35.08 244 34.72C243.712 34.36 243.208 34.18 242.488 34.18H242.164C241.42 34.18 240.94 34.372 240.724 34.756C240.532 35.116 240.388 35.788 240.292 36.772C240.196 38.188 240.064 39.616 239.896 41.056C239.752 42.496 239.548 43.876 239.284 45.196C239.044 46.492 238.696 47.668 238.24 48.724C237.832 49.636 237.316 50.368 236.692 50.92C236.092 51.448 235.372 51.748 234.532 51.82L234.316 51.244C235.108 51.244 235.78 50.98 236.332 50.452C236.884 49.9 237.292 49.276 237.556 48.58C238.228 47.02 238.684 45.196 238.924 43.108C239.188 40.996 239.404 38.884 239.572 36.772C239.644 35.764 239.428 35.08 238.924 34.72C238.444 34.36 237.712 34.18 236.728 34.18V33.424C236.92 33.448 237.22 33.472 237.628 33.496C238.06 33.496 238.564 33.496 239.14 33.496C239.62 33.496 240.136 33.484 240.688 33.46C241.24 33.436 241.912 33.424 242.704 33.424C243.64 33.424 244.444 33.448 245.116 33.496C245.788 33.544 246.496 33.568 247.24 33.568C248.056 33.568 248.896 33.556 249.76 33.532C250.624 33.484 251.272 33.448 251.704 33.424ZM263.045 32.884C265.157 32.884 266.813 33.508 268.013 34.756C269.213 36.004 269.813 38.044 269.813 40.876H257.969L257.897 40.192H265.277C265.301 39.016 265.229 37.936 265.061 36.952C264.893 35.944 264.629 35.14 264.269 34.54C263.909 33.94 263.429 33.64 262.829 33.64C261.989 33.64 261.269 34.168 260.669 35.224C260.093 36.28 259.745 38.032 259.625 40.48L259.733 40.696C259.709 40.984 259.685 41.284 259.661 41.596C259.661 41.908 259.661 42.232 259.661 42.568C259.661 44.224 259.889 45.568 260.345 46.6C260.825 47.632 261.425 48.388 262.145 48.868C262.865 49.324 263.597 49.552 264.341 49.552C265.061 49.552 265.841 49.372 266.681 49.012C267.545 48.652 268.349 47.872 269.093 46.672L269.741 46.888C269.453 47.8 268.997 48.688 268.373 49.552C267.749 50.416 266.957 51.124 265.997 51.676C265.037 52.228 263.885 52.504 262.541 52.504C260.909 52.504 259.469 52.156 258.221 51.46C256.973 50.764 255.989 49.708 255.269 48.292C254.573 46.876 254.225 45.076 254.225 42.892C254.225 40.66 254.597 38.8 255.341 37.312C256.109 35.824 257.153 34.72 258.473 34C259.817 33.256 261.341 32.884 263.045 32.884ZM286.945 33.424C286.849 34.432 286.777 35.404 286.729 36.34C286.705 37.252 286.693 37.96 286.693 38.464C286.693 38.92 286.705 39.376 286.729 39.832C286.753 40.264 286.777 40.624 286.801 40.912H285.973C285.661 39.28 285.289 37.972 284.857 36.988C284.449 35.98 283.969 35.26 283.417 34.828C282.889 34.372 282.277 34.144 281.581 34.144C281.485 34.144 281.377 34.144 281.257 34.144C281.161 34.144 281.053 34.144 280.933 34.144C280.405 34.144 280.009 34.3 279.745 34.612C279.505 34.924 279.385 35.5 279.385 36.34V48.292C279.385 49.468 279.685 50.26 280.285 50.668C280.909 51.052 281.737 51.244 282.769 51.244V52C282.145 51.976 281.269 51.952 280.141 51.928C279.037 51.88 277.849 51.856 276.577 51.856C275.689 51.856 274.801 51.88 273.913 51.928C273.025 51.952 272.353 51.976 271.897 52V51.244C272.737 51.244 273.325 51.064 273.661 50.704C274.021 50.344 274.201 49.66 274.201 48.652V36.772C274.201 35.764 274.021 35.08 273.661 34.72C273.325 34.36 272.737 34.18 271.897 34.18V33.424C272.353 33.448 273.037 33.484 273.949 33.532C274.885 33.556 275.785 33.568 276.649 33.568C277.537 33.568 278.401 33.544 279.241 33.496C280.105 33.448 280.813 33.424 281.365 33.424H286.945ZM306.306 33.388V34.108C305.85 34.228 305.418 34.516 305.01 34.972C304.602 35.404 304.206 36.148 303.822 37.204L298.746 51.46L297.414 53.98L289.566 36.16C289.158 35.224 288.75 34.66 288.342 34.468C287.958 34.252 287.622 34.144 287.334 34.144V33.388C288.126 33.46 288.942 33.52 289.782 33.568C290.646 33.592 291.474 33.604 292.266 33.604C293.25 33.604 294.15 33.58 294.966 33.532C295.782 33.484 296.55 33.436 297.27 33.388V34.144C296.79 34.144 296.334 34.18 295.902 34.252C295.494 34.3 295.206 34.468 295.038 34.756C294.894 35.02 294.966 35.488 295.254 36.16L299.79 47.104L299.466 47.32L302.13 39.868C302.802 37.924 302.91 36.508 302.454 35.62C301.998 34.708 301.194 34.204 300.042 34.108V33.388C300.594 33.412 301.194 33.436 301.842 33.46C302.49 33.484 303.054 33.496 303.534 33.496C304.014 33.496 304.518 33.484 305.046 33.46C305.574 33.436 305.994 33.412 306.306 33.388ZM298.746 51.46L297.378 55.312C296.922 56.536 296.394 57.388 295.794 57.868C295.458 58.156 295.026 58.372 294.498 58.516C293.97 58.684 293.358 58.768 292.662 58.768C292.086 58.768 291.486 58.672 290.862 58.48C290.262 58.288 289.758 57.976 289.35 57.544C288.942 57.112 288.738 56.56 288.738 55.888C288.738 55.144 289.002 54.544 289.53 54.088C290.058 53.656 290.754 53.44 291.618 53.44C292.41 53.44 293.058 53.632 293.562 54.016C294.066 54.4 294.318 54.964 294.318 55.708C294.318 56.188 294.162 56.644 293.85 57.076C293.562 57.508 293.118 57.832 292.518 58.048C292.638 58.072 292.782 58.084 292.95 58.084C293.118 58.084 293.25 58.084 293.346 58.084C294.066 58.084 294.702 57.856 295.254 57.4C295.806 56.944 296.262 56.224 296.622 55.24L297.882 51.532L298.746 51.46ZM315.64 32.884C316.576 32.884 317.428 32.992 318.196 33.208C318.988 33.4 319.636 33.652 320.14 33.964C320.764 34.348 321.244 34.828 321.58 35.404C321.94 35.956 322.12 36.604 322.12 37.348C322.12 38.188 321.856 38.884 321.328 39.436C320.8 39.964 320.116 40.228 319.276 40.228C318.436 40.228 317.764 39.988 317.26 39.508C316.756 39.028 316.504 38.38 316.504 37.564C316.504 36.796 316.744 36.16 317.224 35.656C317.704 35.128 318.256 34.78 318.88 34.612C318.688 34.372 318.4 34.168 318.016 34C317.632 33.832 317.2 33.748 316.72 33.748C315.976 33.748 315.316 33.964 314.74 34.396C314.188 34.828 313.72 35.428 313.336 36.196C312.952 36.964 312.652 37.864 312.436 38.896C312.244 39.928 312.148 41.056 312.148 42.28C312.148 44.128 312.376 45.58 312.832 46.636C313.312 47.692 313.912 48.436 314.632 48.868C315.376 49.3 316.144 49.516 316.936 49.516C317.608 49.516 318.376 49.336 319.24 48.976C320.104 48.592 320.908 47.8 321.652 46.6L322.264 46.816C322 47.704 321.568 48.592 320.968 49.48C320.368 50.368 319.588 51.1 318.628 51.676C317.668 52.228 316.492 52.504 315.1 52.504C313.54 52.504 312.124 52.168 310.852 51.496C309.604 50.8 308.596 49.744 307.828 48.328C307.084 46.888 306.712 45.04 306.712 42.784C306.712 40.624 307.096 38.812 307.864 37.348C308.656 35.86 309.724 34.744 311.068 34C312.412 33.256 313.936 32.884 315.64 32.884ZM343.327 33.424C343.231 34.432 343.159 35.404 343.111 36.34C343.087 37.252 343.075 37.96 343.075 38.464C343.075 38.92 343.087 39.376 343.111 39.832C343.135 40.264 343.159 40.624 343.183 40.912H342.355C342.067 39.184 341.671 37.828 341.167 36.844C340.663 35.86 340.099 35.164 339.475 34.756C338.875 34.348 338.227 34.144 337.531 34.144H336.343V48.292C336.343 49.468 336.643 50.26 337.243 50.668C337.867 51.052 338.695 51.244 339.727 51.244V52C339.127 51.976 338.287 51.952 337.207 51.928C336.151 51.88 335.011 51.856 333.787 51.856C332.587 51.856 331.435 51.88 330.331 51.928C329.251 51.952 328.399 51.976 327.775 52V51.244C328.855 51.244 329.683 51.088 330.259 50.776C330.859 50.44 331.159 49.684 331.159 48.508V34.144H329.827C329.179 34.144 328.555 34.348 327.955 34.756C327.355 35.164 326.815 35.86 326.335 36.844C325.879 37.828 325.495 39.184 325.183 40.912H324.355C324.403 40.624 324.427 40.264 324.427 39.832C324.451 39.4 324.463 38.944 324.463 38.464C324.463 37.96 324.439 37.252 324.391 36.34C324.367 35.404 324.307 34.432 324.211 33.424H328.027C328.699 33.424 329.551 33.448 330.583 33.496C331.615 33.52 332.659 33.532 333.715 33.532C334.819 33.532 335.887 33.52 336.919 33.496C337.975 33.448 338.839 33.424 339.511 33.424H343.327ZM349.88 52.252C348.272 52.252 347.108 51.832 346.388 50.992C345.668 50.152 345.308 49.132 345.308 47.932C345.308 46.9 345.536 46.06 345.992 45.412C346.472 44.764 347.084 44.236 347.828 43.828C348.572 43.396 349.352 43.048 350.168 42.784C351.008 42.496 351.8 42.22 352.544 41.956C353.312 41.668 353.924 41.344 354.38 40.984C354.86 40.624 355.1 40.168 355.1 39.616V36.808C355.1 36.184 354.992 35.632 354.776 35.152C354.584 34.648 354.272 34.264 353.84 34C353.432 33.736 352.892 33.604 352.22 33.604C351.74 33.604 351.26 33.676 350.78 33.82C350.3 33.94 349.904 34.156 349.592 34.468C350.264 34.708 350.78 35.08 351.14 35.584C351.524 36.064 351.716 36.616 351.716 37.24C351.716 38.056 351.428 38.704 350.852 39.184C350.3 39.664 349.64 39.904 348.872 39.904C348.008 39.904 347.348 39.64 346.892 39.112C346.46 38.56 346.244 37.9 346.244 37.132C346.244 36.436 346.412 35.86 346.748 35.404C347.108 34.948 347.6 34.516 348.224 34.108C348.896 33.724 349.7 33.424 350.636 33.208C351.596 32.992 352.628 32.884 353.732 32.884C354.836 32.884 355.832 33.004 356.72 33.244C357.608 33.46 358.352 33.868 358.952 34.468C359.504 35.02 359.864 35.704 360.032 36.52C360.2 37.312 360.284 38.32 360.284 39.544V49.336C360.284 49.912 360.344 50.32 360.464 50.56C360.584 50.8 360.788 50.92 361.076 50.92C361.316 50.92 361.544 50.86 361.76 50.74C361.976 50.62 362.18 50.476 362.372 50.308L362.732 50.92C362.228 51.352 361.64 51.688 360.968 51.928C360.32 52.144 359.588 52.252 358.772 52.252C357.332 52.252 356.372 51.964 355.892 51.388C355.436 50.788 355.196 50.104 355.172 49.336C354.572 50.32 353.828 51.052 352.94 51.532C352.076 52.012 351.056 52.252 349.88 52.252ZM352.652 49.948C353.108 49.948 353.528 49.84 353.912 49.624C354.32 49.408 354.716 49.024 355.1 48.472V41.092C354.812 41.572 354.404 41.98 353.876 42.316C353.372 42.628 352.844 42.976 352.292 43.36C351.764 43.72 351.32 44.188 350.96 44.764C350.6 45.34 350.42 46.108 350.42 47.068C350.42 48.1 350.636 48.844 351.068 49.3C351.5 49.732 352.028 49.948 352.652 49.948ZM384.964 33.424V34.18C384.124 34.18 383.524 34.36 383.164 34.72C382.828 35.08 382.66 35.764 382.66 36.772V48.652C382.66 49.66 382.864 50.344 383.272 50.704C383.68 51.064 384.448 51.244 385.576 51.244C385.48 52.084 385.408 52.888 385.36 53.656C385.336 54.448 385.324 55.048 385.324 55.456C385.324 56.392 385.36 57.136 385.432 57.688H384.604C384.364 56.272 384.04 55.144 383.632 54.304C383.224 53.464 382.648 52.852 381.904 52.468C381.16 52.108 380.164 51.928 378.916 51.928C378.148 51.928 377.476 51.94 376.9 51.964C376.324 51.988 375.544 52 374.56 52C373.36 52 372.328 51.976 371.464 51.928C370.624 51.88 369.712 51.856 368.728 51.856C367.816 51.856 366.88 51.88 365.92 51.928C364.96 51.952 364.24 51.976 363.76 52V51.244C364.6 51.244 365.188 51.064 365.524 50.704C365.884 50.344 366.064 49.66 366.064 48.652V36.772C366.064 35.764 365.884 35.08 365.524 34.72C365.188 34.36 364.6 34.18 363.76 34.18V33.424C364.216 33.448 364.9 33.484 365.812 33.532C366.748 33.556 367.648 33.568 368.512 33.568C369.448 33.568 370.348 33.556 371.212 33.532C372.1 33.484 372.76 33.448 373.192 33.424V34.18C372.496 34.18 371.992 34.36 371.68 34.72C371.392 35.08 371.248 35.764 371.248 36.772V48.652C371.248 49.66 371.392 50.344 371.68 50.704C371.992 51.064 372.496 51.244 373.192 51.244H375.532C376.252 51.244 376.756 51.064 377.044 50.704C377.332 50.344 377.476 49.66 377.476 48.652V36.772C377.476 35.764 377.332 35.08 377.044 34.72C376.756 34.36 376.252 34.18 375.532 34.18V33.424C375.964 33.448 376.6 33.484 377.44 33.532C378.28 33.556 379.132 33.568 379.996 33.568C380.932 33.568 381.868 33.556 382.804 33.532C383.764 33.484 384.484 33.448 384.964 33.424ZM408.921 33.424V34.18C408.081 34.18 407.481 34.36 407.121 34.72C406.785 35.08 406.617 35.764 406.617 36.772V48.652C406.617 49.66 406.785 50.344 407.121 50.704C407.481 51.064 408.081 51.244 408.921 51.244V52C408.465 51.976 407.769 51.952 406.833 51.928C405.921 51.88 405.033 51.856 404.169 51.856C403.257 51.856 402.357 51.88 401.469 51.928C400.605 51.952 399.945 51.976 399.489 52V51.244C400.209 51.244 400.713 51.064 401.001 50.704C401.289 50.344 401.433 49.66 401.433 48.652V36.772C401.433 35.764 401.289 35.08 401.001 34.72C400.713 34.36 400.209 34.18 399.489 34.18V33.424C399.921 33.448 400.557 33.484 401.397 33.532C402.237 33.556 403.089 33.568 403.953 33.568C404.889 33.568 405.825 33.556 406.761 33.532C407.721 33.484 408.441 33.448 408.921 33.424ZM396.501 33.424V34.18C395.805 34.18 395.301 34.36 394.989 34.72C394.701 35.08 394.557 35.764 394.557 36.772V48.652C394.557 49.66 394.701 50.344 394.989 50.704C395.301 51.064 395.805 51.244 396.501 51.244V52C396.069 51.976 395.433 51.952 394.593 51.928C393.777 51.88 392.925 51.856 392.037 51.856C391.125 51.856 390.189 51.88 389.229 51.928C388.269 51.952 387.549 51.976 387.069 52V51.244C387.909 51.244 388.497 51.064 388.833 50.704C389.193 50.344 389.373 49.66 389.373 48.652V36.772C389.373 35.764 389.193 35.08 388.833 34.72C388.497 34.36 387.909 34.18 387.069 34.18V33.424C387.525 33.448 388.209 33.484 389.121 33.532C390.057 33.556 390.957 33.568 391.821 33.568C392.757 33.568 393.657 33.556 394.521 33.532C395.409 33.484 396.069 33.448 396.501 33.424ZM401.865 35.62L402.477 35.98L393.909 50.488L393.297 50.128L401.865 35.62ZM429.811 32.884C431.467 32.884 432.931 33.208 434.203 33.856C435.475 34.504 436.471 35.548 437.191 36.988C437.911 38.428 438.271 40.336 438.271 42.712C438.271 45.088 437.911 46.996 437.191 48.436C436.471 49.852 435.475 50.884 434.203 51.532C432.931 52.18 431.467 52.504 429.811 52.504C428.179 52.504 426.715 52.18 425.419 51.532C424.147 50.884 423.151 49.852 422.431 48.436C421.711 46.996 421.351 45.088 421.351 42.712C421.351 40.336 421.711 38.428 422.431 36.988C423.151 35.548 424.147 34.504 425.419 33.856C426.715 33.208 428.179 32.884 429.811 32.884ZM420.091 33.424V34.18C419.395 34.18 418.891 34.36 418.579 34.72C418.291 35.08 418.147 35.764 418.147 36.772V48.652C418.147 49.66 418.303 50.344 418.615 50.704C418.951 51.064 419.491 51.244 420.235 51.244V52C419.803 51.976 419.143 51.952 418.255 51.928C417.391 51.88 416.515 51.856 415.627 51.856C414.715 51.856 413.779 51.88 412.819 51.928C411.859 51.952 411.139 51.976 410.659 52V51.244C411.499 51.244 412.087 51.064 412.423 50.704C412.783 50.344 412.963 49.66 412.963 48.652V36.772C412.963 35.764 412.783 35.08 412.423 34.72C412.087 34.36 411.499 34.18 410.659 34.18V33.424C411.115 33.448 411.799 33.484 412.711 33.532C413.647 33.556 414.547 33.568 415.411 33.568C416.347 33.568 417.247 33.556 418.111 33.532C418.999 33.484 419.659 33.448 420.091 33.424ZM423.619 42.388V43.108H416.455V42.388H423.619ZM429.811 33.604C429.235 33.604 428.719 33.892 428.263 34.468C427.807 35.02 427.447 35.956 427.183 37.276C426.919 38.596 426.787 40.408 426.787 42.712C426.787 44.992 426.919 46.792 427.183 48.112C427.447 49.432 427.807 50.38 428.263 50.956C428.719 51.508 429.235 51.784 429.811 51.784C430.387 51.784 430.903 51.508 431.359 50.956C431.815 50.38 432.175 49.432 432.439 48.112C432.703 46.792 432.835 44.992 432.835 42.712C432.835 40.408 432.703 38.596 432.439 37.276C432.175 35.956 431.815 35.02 431.359 34.468C430.903 33.892 430.387 33.604 429.811 33.604Z" fill="white"/>
</svg>
